<svg width="48" height="48" viewBox="0 0 48 48" fill="none" xmlns="http://www.w3.org/2000/svg">
<path d="M24 32C28.4183 32 32 28.4183 32 24C32 19.5817 28.4183 16 24 16C19.5817 16 16 19.5817 16 24C16 28.4183 19.5817 32 24 32Z" fill="currentColor"/>
<path fill-rule="evenodd" clip-rule="evenodd" d="M29.1716 7.17157C28.4214 6.42143 27.404 6 26.3431 6H21.6569C20.596 6 19.5786 6.42143 18.8284 7.17157L17.1716 8.82843C16.4214 9.57857 15.404 10 14.3431 10H6C3.79086 10 2 11.7909 2 14V34C2 36.2091 3.79086 38 6 38H42C44.2091 38 46 36.2091 46 34V14C46 11.7909 44.2091 10 42 10H33.6569C32.596 10 31.5786 9.57857 30.8284 8.82843L29.1716 7.17157ZM36 24C36 30.6274 30.6274 36 24 36C17.3726 36 12 30.6274 12 24C12 17.3726 17.3726 12 24 12C30.6274 12 36 17.3726 36 24ZM40 14C40 15.1046 39.1046 16 38 16C36.8954 16 36 15.1046 36 14C36 12.8954 36.8954 12 38 12C39.1046 12 40 12.8954 40 14Z" fill="currentColor"/>
<path d="M10 6C11.1046 6 12 6.89543 12 8H8C8 6.89543 8.89543 6 10 6Z" fill="currentColor"/>
</svg>
