<svg width="25" height="24" viewBox="0 0 25 24" fill="none" xmlns="http://www.w3.org/2000/svg">
<g style="mix-blend-mode:multiply">
<path d="M6.5 18.5C6.5 20.433 8.067 22 10 22C11.7505 22 13.2417 20.6782 13.5 19V11.04C15.7822 11.2253 17.5 12.0324 17.5 13C18 11.5 19.5 11 20.5 11C23 11 23.5 11.8954 23.5 13C23.5 7.26196 19.1065 2.55007 13.5 2.04484V2C13.5 1.44772 13.0523 1 12.5 1C11.9477 1 11.5 1.44772 11.5 2V2.04484C5.8935 2.55007 1.5 7.26196 1.5 13C1.5 12 2 11 4.5 11C5.5 11 7 11.5 7.5 13C7.5 12.0324 9.21776 11.2253 11.5 11.04V18.5C11.5 19.3284 10.8284 20 10 20C9.17157 20 8.5 19.3284 8.5 18.5C8.5 17.9477 8.05229 17.5 7.5 17.5C6.94772 17.5 6.5 17.9477 6.5 18.5Z" fill="currentColor"/>
</g>
</svg>
