<svg width="25" height="24" viewBox="0 0 25 24" fill="none" xmlns="http://www.w3.org/2000/svg">
<g style="mix-blend-mode:multiply">
<path d="M2.5 6C2.5 5.44772 2.94772 5 3.5 5H21.5C22.0523 5 22.5 5.44772 22.5 6V7C22.5 7.55228 22.0523 8 21.5 8H3.5C2.94772 8 2.5 7.55228 2.5 7V6Z" fill="currentColor"/>
<path d="M2.5 11.5C2.5 10.9477 2.94772 10.5 3.5 10.5H21.5C22.0523 10.5 22.5 10.9477 22.5 11.5V12.5C22.5 13.0523 22.0523 13.5 21.5 13.5H3.5C2.94772 13.5 2.5 13.0523 2.5 12.5V11.5Z" fill="currentColor"/>
<path d="M3.5 16C2.94772 16 2.5 16.4477 2.5 17V18C2.5 18.5523 2.94772 19 3.5 19H21.5C22.0523 19 22.5 18.5523 22.5 18V17C22.5 16.4477 22.0523 16 21.5 16H3.5Z" fill="currentColor"/>
</g>
</svg>
