<svg width="25" height="24" viewBox="0 0 25 24" fill="none" xmlns="http://www.w3.org/2000/svg">
<g style="mix-blend-mode:multiply">
<path fill-rule="evenodd" clip-rule="evenodd" d="M15.7148 17.3361C14.2436 18.3838 12.4437 19 10.5 19C5.52944 19 1.5 14.9706 1.5 10C1.5 5.02944 5.52944 1 10.5 1C15.4706 1 19.5 5.02944 19.5 10C19.5 11.9437 18.8838 13.7436 17.8361 15.2148L23.0607 20.4393C23.6464 21.0251 23.6464 21.9749 23.0607 22.5607C22.4749 23.1464 21.5251 23.1464 20.9393 22.5607L15.7148 17.3361ZM15.3125 15.0833C14.058 16.2714 12.3641 17 10.5 17C6.63401 17 3.5 13.866 3.5 10C3.5 6.13401 6.63401 3 10.5 3C14.366 3 17.5 6.13401 17.5 10C17.5 11.8641 16.7714 13.558 15.5833 14.8125C15.5333 14.8512 15.4852 14.8935 15.4393 14.9393C15.3935 14.9852 15.3512 15.0333 15.3125 15.0833Z" fill="currentColor"/>
</g>
</svg>
